<?xml version="1.0" standalone="no"?><!DOCTYPE svg PUBLIC "-//W3C//DTD SVG 1.1//EN" "http://www.w3.org/Graphics/SVG/1.1/DTD/svg11.dtd"><svg t="1764848576516" class="icon" viewBox="0 0 1024 1024" version="1.1" xmlns="http://www.w3.org/2000/svg" p-id="1687" xmlns:xlink="http://www.w3.org/1999/xlink" width="200" height="200"><path d="M336.22 512h-96.44a26.45 26.45 0 0 0-26.45 26.44v395.12A26.45 26.45 0 0 0 239.78 960h96.44a26.45 26.45 0 0 0 26.45-26.44v-96.45a26.44 26.44 0 0 1 26.44-26.44h245.78a26.44 26.44 0 0 1 26.44 26.44v96.45A26.45 26.45 0 0 0 687.78 960h96.44a26.45 26.45 0 0 0 26.45-26.44V538.44A26.45 26.45 0 0 0 784.22 512h-96.44a26.45 26.45 0 0 1-26.45-26.44v-90.23a32.66 32.66 0 0 0-32.66-32.66H395.33a32.66 32.66 0 0 0-32.66 32.66v90.23A26.45 26.45 0 0 1 336.22 512z m367.11-149.33H918a42 42 0 0 0 42-42V106a42 42 0 0 0-42-42H703.33a42 42 0 0 0-42 42v214.67a42 42 0 0 0 42 42z m-597.33 0h214.67a42 42 0 0 0 42-42V106a42 42 0 0 0-42-42H106a42 42 0 0 0-42 42v214.67a42 42 0 0 0 42 42z" p-id="1688" fill="#707070"></path></svg>